<?xml version="1.0" encoding="UTF-8"?>
<svg id="Layer_3" xmlns="http://www.w3.org/2000/svg" version="1.1" viewBox="0 0 615 368">
  <!-- Generator: Adobe Illustrator 29.6.1, SVG Export Plug-In . SVG Version: 2.1.1 Build 9)  -->
  <defs>
    <style>
      .st0 {
        fill: #19272e;
      }
    </style>
  </defs>
  <path class="st0" d="M476.4,360.8l-1.7.7c-1.1.4-2-.3-4.4-3.5l-13.5-17.6c-3.4-4.4-6.8-8.2-9.5-9.9-3.3-2-6.2-1.8-8.2,1.3-1.3,2-2.9,6.8-1.3,14.3,1.6,7.4,4.9,13.2,8.9,15.7,2.9,1.8,6.1,1.7,8.3-1.7,2.7-4.3,1.2-10.5-2.4-18.2h0c0-.1,15,19.4,15,19.4,1.7,2.2,3.3,4.4,5.8,7.6h.5c1.7-2.6,2.9-6.2,3.2-7.5,0-.4-.4-.6-.7-.7ZM453.5,358.1c-.7,1-1.8,1.7-3.3.7-3.3-2-7.9-10.8-9.7-16.8-1.2-4.1-.9-7-.4-7.8.6-1,2-1.5,4.2-.1,2.6,1.6,6.2,6.3,8.1,12.5,1.8,6,2,10,1.1,11.6ZM16,6c-.5,7.1-1.9,11.2-4.2,13.5-.9.9-2.1,1.7-3.7,2.4-.3.6,0,1.2.7,1.4,4.2-2.2,7.5-4.8,9.6-8.8,1-1.9,1.6-4.8,1.9-9M600.5,124.3l-.9.8c-2.1,2-2.8,1.5-6.7-2l-13.1-11.6c-3.9-3.5-4.4-4-2.7-6.4l.7-1c0-.4-.7-.9-1-.7-1.6,1.9-2.7,3.2-4.1,4.7-1.3,1.5-2.5,2.7-4.2,4.4,0,.3.5,1,.9.9l.9-.8c2.2-1.9,2.8-1.5,6.7,1.9l13.1,11.6c3.9,3.5,4.5,4.1,2.7,6.4l-.8,1c0,.3.7.9,1,.7,1.6-1.9,2.7-3.2,4-4.6,1.4-1.5,2.5-2.7,4.3-4.5,0-.3-.5-1-.9-.9ZM438.6,260.9c2.4,3.3,6.9,4.1,10.4,1.6,3-2.2,4.5-6.2,1.6-10.1-2.6-3.5-7.1-4.2-10.5-1.7-3.1,2.2-4.2,6.5-1.4,10.3ZM441.8,252c3.8-2.7,6.7-1.3,8,.5,2.4,3.3.2,6.7-2.6,8.7-3.4,2.4-6.4,1.6-7.9-.4-2.5-3.4,0-7,2.5-8.8ZM221.2,317.2c-12.1,4.2-20.8,16.1-15.2,31.8,5,14,19.2,20.6,32.9,15.8,12.4-4.3,20.1-17.2,14.8-32.3-4.7-13.1-18.5-20.1-32.5-15.3ZM234.3,358.8c-15.1,5.2-23.2-2.3-25.8-9.3-4.6-13,5.9-22.2,17.3-26.2,13.6-4.7,22.5.9,25.4,9.1,4.8,13.4-6.7,22.9-16.9,26.4ZM474.5,244.4l-.6,1.1c-1.4,2.5-1.9,2.4-6.3.7l-18.6-7.3c-1.3-.5-1.5-.6-.6-2.8,1.7-4.3,5.3-5.6,9.3-4,3.6,1.4,5.5,4,4.6,8.8,0,.3.6.5.8.3.7-1.7,1.2-4,1-6.2-.2-2.1-1.1-5.2-5-6.7-2.9-1.1-5.6-.6-7.6.8-2,1.5-3.5,3.8-4.8,7.3-1.4,3.4-2.4,6-2.9,8.3,0,.4.6.7,1,.5l.8-1.4c.9-1.8,1.7-1.6,5.2-.2l15.4,6c4.4,1.7,4.8,2,4.2,4.5l-.2.9c.2.3.9.5,1.1.3.7-1.9,1.2-3.4,1.9-5.1.7-1.7,1.2-3,2.3-5.3,0-.3-.7-.7-1-.5ZM598.1.8c-.9,3.3-.4,7.3,1.1,12.2,1.5,5,2.7,8.7,4.1,11.7.4.4,1.3.2,1.6-.3l-.4-2.2c-.5-2.8.5-3.2,5.6-4.8M620.4,4.6c.2.3,1.1,0,1.2-.4M604,13.9c-1.9.6-2.2.6-3.2-2.6M444.9,186.5c-3.1-13.1-12.5-22.8-27.2-24.5-7.1-.9-14.3.2-22.7,2.1-8.5,1.9-16.5,4.1-24.9,6.5-.9.6-.4,2.2.5,2.5l2.3-.2c4.3-.4,5.3,1.6,7,8.5l8.8,37.6c2.4,10.4,2.5,11.6-3.1,13.7l-2.2.8c-.5.7.1,2.3.8,2.4,4.6-1.3,8.2-2.2,12.4-3.2,3.5-.8,10.1-1.5,16.5-2.9,7.7-1.8,15.6-4.9,21.3-9.9,10-8.7,13.5-20.9,10.6-33.5ZM414.1,226.4c-6.3,1.4-10.3,1.3-13.3-1.2-2.3-2-3.3-5.1-4.5-10.3l-8.6-36.5c-1.1-4.4-1.4-7-.8-7.7,0,0,0,0,0,0,.4,0,.5.3,1,.3v-1c1.4-.8,4.2-1.9,8.6-2.9,8.6-2,15.4-1.4,20.8.5,0,.4,0,.9.5.7,0-.2.1-.3.2-.4,10.5,4.2,15.2,14.1,16.9,21.2,4.3,18.4-1.4,32.9-20.8,37.4ZM539.8.6c.3,1.2,1,2.2,2.1,3l3.4,4.9c.5.8,1,1.4,1.4,2.1-.2,0-.3,0-.5,0-1.4,1.8.1,4.2,2.1,3.9-.1.8-.7,1.5-1.8,2.4l-1.7,1.4c-.2.5.5,1.3.9,1.2,3.2-2.3,4.9-3.5,6.9-4.9,2-1.4,3.8-2.5,6.7-4.3.2-.4-.3-1.3-.8-1.3l-1.7.9c-3.1,1.7-3.7,1.1-7.3-4.2l-.4-.6c2.3-.5,4-2.2,3.4-5.2M324.2-.4c-3.5,1.3-2.7,6.4-.7,8.8.5,0,.6-.3,1.1-.3,2.4,2.5,7.6,2.2,12.7,2l1.3,3c3,6.7,4.8,11.3,6.3,14.7l-3,3.1c-1.5,1.6-1.7,1.8-2.7,1.1l-.3-.2c-.2,0-.4.3-.3.4.6.5,1.2,1,1.8,1.5.6.6,1.1,1.1,2,1.9.1,0,.4-.2.4-.3l-.3-.4c-.8-.9-.8-1.2.8-2.9l2.4-2.6c.1.3.3.6.4.9,1.2,2.8.6,4.6-.7,6l-1.7,2c0,.5.7,1.2,1.3,1.3-.3.8-.5,1.7-.7,2.7-.4,2.1-.8,4.2-1,6.3,0,.3.5.3.6.2l.2-.5c.4-1,.9-1,2.7-.7l3.8.7c.7,4.4,1.5,8.7,2.4,13.1.3.6,1.3.4,1.5-.2v-1.3c0-2.3.9-2.9,4-3.5-.6.9-1.1,1.8-1.9,2.6.8,6.9,13.9,4,9.2-2.7,0-.7,1.1-.2.9-1.1-.4.1-.7.1-1.1.1l14.3-2.1-4.3,17.8c-.9,3.9-1.9,7.9-2.9,11.8-1-.8-1.9-1.6-2.7-2.4-1-.3-2.1,1.1-1.9,1.9l2.6,2.5c1.9,1.8,1.9,2.6,1.1,3.6-.7.9-3.2,2.7-7.5,5.4l-10,6.3c-2,1.3-2.7,1.1-4.8-.6l-12.6-10.1c-2.5-2-2.6-2.5-1.7-4.8l5.5-14.2c1-2.5,1.8-4.4,2.5-5.3.7-.8,2.3-.4,4.1.8l2.6,1.7c.9,0,1.9-1.3,1.5-2.2-2.5-1.9-5.8-4.2-9.8-7.4-3.8-3-6.6-5.4-9.9-8.3-.7,0-1.9,1.2-1.7,2.1l2.1,2.1c3.3,3.3,3.3,5.4,0,14.5l-15.7,42.4c-1.7,4.6-3.5,9.5-5.4,14-.3.7.2,1.3.7,1.7,1.8-.3,4.4-.7,6.9.3.8-1.5,2.6-2.7,6.2-4.7l26.8-15.5c11.1-6.4,17.8-9.9,22.5-12.6.7-.4,1.4-.7,2.1-.9,0,0,0,.1,0,.2,2.9,1.6,5.4,3,8.3,4.8,3,1.8,5.4,3.4,9.4,6,.6,0,1.5-1.1,1.2-1.7l-1.7-1.2c-4-2.9-4.2-4.2.7-12l6.2-9.9c4.6-1.4,10.2-2.2,17.9-3.2.6,0,1.4-.1,1.6.4-.1,2.3.3,5.6,2.1,8.3-.4-.3-.8-.6-1.2-.9-.8-.3-1.5.7-1.3,1.4l1.1,1.3c2.1,2.4,1.3,3.9-2.2,7.8l-19.2,21.4c-5.3,5.9-6,6.5-9.7,4.1l-1.5-1c-.7,0-1.3,1-1.2,1.5,2.8,2.2,4.9,4,7.3,6.1,1.3,1.1,3,2.9,5,4.9.2,1,.5,2.2.9,3.8l2.2,11.4c.6,3.1,1.1,5.6,1.5,8.1,1.3.5,4.6.8,6.8.8.4-.2.3-.8,0-1.2-1.9-.4-3.8-1.2-4.7-2.3-1.3-1.5-2.1-5.2-2.6-8-.6-3.1-1.1-5.4-1.2-6.6,0-.8,0-1.3.4-1.4.3,0,1.8.5,3.4,1.2,3.8,2.9,8.1,5.3,12.5,6.3,1.1.2,2.1.4,3.1.5l.9.4c3.8,1.7,9.8,4.4,11,5.4.2,0,.3-.2.4-.3-.2-.5-.5-1.9-1.1-5.1l-.3-1.6c4.2-1.4,7.9-3.9,11.1-7.5,1.6-1.8,3-3.8,4-5.9,1.4-.3,2.8-.6,4.3-1,.6-.1.8-.2,1,0,.2.1.3.4.5,1l.9,3.3c.6,2.1,1,4.1,1,5,0,.9-.2,2-.5,2.6,0,.2.4.4.6.3.3-.8.8-1.6,1.2-2.5.5-.9,1-1.8,1.5-2.7,0-.3-.3-.5-.6-.4l-.5.6c-.2.3-.4.3-.5.3-.1,0-.2-.2-.3-.4-.2-.4-.8-2.3-1-3l-1.2-4.1c0-.4-.4-1.4-.5-1.9,0-.2,0-.6,0-.8.2-.3.6,0,1.1.2l2.9,1.5c2.6,1.4,3,1.6,2.3,3.1l-.2.5c0,.2.5.4.6.3.5-1.1.9-1.9,1.5-2.9.6-1.1,1-1.9,1.7-3.1,0-.2-.4-.5-.6-.4l-.4.6c-.9,1.3-1.3,1.2-3.9-.2l-8.8-4.6c.2-4-.7-8.2-3-12.3-1.7-3.2-4.1-6-6.9-8.8l5.8-1.8c2.8-.9,5.3-1.6,7.7-2.2.2.5.5,1,.9,1.1.3-.6.5-1.1.5-1.5.3-.1.7-.2,1-.3.5-1.6.3-5.9,0-8.6-.3-.4-1.1-.3-1.5,0-.3,2.4-1,4.9-2.3,6.2-1.7,1.8-6.3,3.3-9.9,4.4-1.4.4-2.7.8-3.8,1.2-.9-.8-1.7-1.6-2.7-2.4-.8-.7-1.5-1.3-2.3-2,.6-2.1,1.3-4.2,1.5-4.8,1-.4,2-.9,2.9-1.6,2.8-2.1,4.8-5.6,6.6-9.4,2.8-6,4.5-10.3,5.8-13.8,0-.6-1-1.1-1.5-.8l-1.2,1.8c-.6,1-1.2,1.5-2,1.6.1-1.7-.2-3.6-.8-4.4-.2-.3-.5-.5-.8-.6.6-1.6,1.1-2.8,1.5-3.3,0-.2-.3-.4-.5-.4-.6.3-2.3.9-6.3,2.1l-5.6,1.7-13.6-6.2c4.9-3.5,8.4-5.9,11.1-7.9,0,0,0,0,.1.1.7.9,1.5,1.5,2.4,2,0,0,.2,0,.3.1,0,.1,0,.3,0,.4-.2.6-1.2.7-2.5.4l-1.8-.4c-.5.2-.8,1.1-.3,1.5,1.8.5,4.1,1.1,7.1,2,2.7.9,4.9,1.6,7.3,2.5.4-.1.8-1.1.5-1.5l-1.6-.7c-2.5-1.1-3-2.2-3.2-7.5,0,0,0,0,0,0l3.1,1.6c.6,0,1.2-.9,1.3-1.7.6,1.2,1.2,2.3,1.9,3.5-.9.7-.3,2.6,1.1,2.5,0-.2.1-.4.2-.6,7.8,11.7,19.1,16.6,30,17.2,6.5.2,12.7-1.1,18.7-3.4.1,1,1.2,1.8,1.9,2.3,0-1.1.1-2.3-.3-2.9,2.8-1.2,5.6-2.7,8.3-4.3,2.7-1.7,5.4-3.7,7.7-5.6l-2.2,5.4c-2,4.9-2.3,5.4-5.2,4.7l-1.1-.3c-.4.2-.6.9-.4,1.2,2.1.7,3.8,1.4,5.8,2.1,1.9.7.4-4.6,3-3.4.3,0,.7-.8.6-1.1l1.8,5.3c-2.9-1.5-2.7-2.2-.7-7v-.3c2.1,1.8,2.1-1.1,4,1.4.6,0,1.4-.5,1.3-1.2-1-1.5-1.9-2.9-2.2-5-.3-1.5.5-3.4,1.5-5.2,1.6.4,3.4.7,5.2.6,1.1,0,2.4-.4,3.7-1,1.4.1,2.9-.3,4.4-1.2l17.8,11.4c.2.3.3.7.5,1,.6,1.1.9,2,0,2.7-6.7-3.1-12.9-4.1-19.1,1-5.5,4.5-6.6,10.2-5.4,15.3,1.2,5.5,5.1,10.9,9.6,16.3.7.8,1.4,1.6,2,2.4-.2.4-.3.8-.4,1.2-.2.7-.3.9-1.2,1.6-.4.3-.9.7-1.4,1.2-2.8-.5-6.4-.8-9-.8-.7.4-.6,1.5-.2,2.2,2.2.5,4.4,1.3,6.2,2.4-.7,1.2-1,2.4-1.2,3.4-.1.9,0,2.1.3,3,.1,0,.4,0,.4,0-.1-.4-.1-1,0-1.3,0-.6.2-1.4.7-2.4.3-.6.7-1.2,1.2-1.8.5.4.9.8,1.2,1.2,2.3,2.9,3.7,9.7,4.7,15.1,1,5.8,1.8,10.2,2,12.3,0,1.5,0,2.4-.8,2.5-1.3.2-13-5.3-14.5-6l-22.5-10.3c-7.1-3.2-18.1-8.6-20.4-10.6-.3,0-.6.3-.7.6.3.9.9,3.5,1.9,9.5l3.9,22c1.2,6.7,1.3,8-.6,8.6-.2.5,0,1.1.2,1.4,4.8.2,10.1.8,13.2,1.2.6-.5.7-1.5.2-2.2-1.5-.4-4.1-1.3-6.4-2.7-2.5-1.6-3.8-5.3-5-11.9l-2.2-12.4c-.4-2.2-.3-3,.1-3.1.6-.1,1.3.2,2.4.6,2.8.9,6.4,2.8,13.4,6l29,13.5c4.3,1.9,11.1,5.6,13.1,7.1.4,0,.8-.2.9-.6-.4-1.9-1.1-4.9-1.9-9.3l-3.8-21.4c-.7-4.1-1.3-7.6-1.8-11,1.4,1.8,3.5,3.1,6.2,3.4,1.2.2,2.5,0,3.6-.2,1.1,1.1,2.1,2.1,3,3.1.9.4,2.3-.6,2.2-1.7l-2-2.9c1.1-.8,2-1.9,2.6-3.3.2,0,.3-.1.5-.2,0-.5,0-.8,0-1,.1-.5.3-1,.3-1.6.2-1.2,0-2.4-.2-3.5.5-.4,1.1-.9,1.7-1.4l32.8-26.9c9.1-7.4,10.2-8,14.7-4.1l1.5,1.3c1,0,2.2-1.2,2-1.9-2.7-3.1-5.3-5.8-8.5-9.6-3-3.6-6.2-8-8.3-10.5-1.8-2.2-3.7-4.1-5.5-5.7.8-.4,1.4-1.1,1.9-2.2.5-3.4-.7-5.8-3-6.6,0-.8-.4-1.2-1.1-1.4v1.2c-.9-.1-1.9,0-3,.2-.7,1.5-1.8,2.3-2,3.7-8.4-4.6-16.4-3.6-23.1,1.9-5.5,4.5-7.2,9.9-7.1,14.7l-12.5-8c2.1-4,1.7-8.1,1-10.8-.5-2-1.4-3.9-2.3-5.5.4-.3.9-.5,1.3-.7,1.2-.4,3.5.5,5,1.2.5,0,1.1-1,.8-1.5-1.8-.9-3,1.8-4.9-.3-.3,0-.8.5-.8.9.9,1.8-2.4-3.6-4.3-.7l-4.3,6.5c-1-.6-2.2-1.2-3.5-1.8l14.4-9.8c3.7-5.1,4.2-5.6,6.7-3l1.1,1.1c.4,0,.9-.9.8-1.3-2.1-2.6-3.3-4.1-4.7-5.9-.9-1.1-1.6-2.2-2.4-3.2-1.4-4.6-5.6-8-11.8-6.9-.2-.2-.7-.3-1-.1v.4c-.8.2-1.4.4-2,.7-.7-.9-2.2-2.9-2.8-3.7M297.8,1.5c-.3.7-.5,1.5-.4,2.5-.3,1-.7,1.7-1.2,2.2.2-.4,0-1.1-.5-1.1-.2.4-.4.7-.6,1.1.3,0,.4.3.7.3-.9.7-2,.9-2.9.9-.2.1-.2.5-.1.7,1.5.2,3.1.4,3.6.5,0-.2.1-.4.3-.6.3-.6.7-1.4,1-2.2,0,0,0,.1,0,.2,1.8,1.4,1.1,5.3,3.3,6.3,0,0,.1,0,.2,0l-2.3.7c-1.7.5-2,.6-2.3.1-.1,0-.3,0-.4.1,0,.9.1,1.8.1,2.5-.5-.2-1.1-.2-1.8-.2-1.4,1.5-.9,3,.2,3.6-.1.3-.3.6-.5,1l-1.8,3.6c-.4.9-.8,1.6-1.2,2.3-.1,0-.3-.1-.4-.2-.2-.9-.8-1.6-1.5-2-.7-2.5-1.3-4.5-1.5-5.8,0-.6,0-1.1.4-1.5l.5-.5c0-.2-.2-.5-.4-.4-.6.6-1.2,1.1-1.8,1.6-.7.6-1.5,1.2-2,1.6,0,.2.1.5.4.5l.4-.3c.7-.5,1.1-.5,1.2-.4.1.1.3.4.5.9.2.7.7,2.2,1.2,3.7-1-.2-2.1-.2-3,.2-.3-.1-.6-.2-.9-.4-.9-.4-1.6-.7-2.1-.9-.2,0-.3.3-.2.5l.5.3c.6.3.9.8,1.2,1.4,0,0,0,.2,0,.2-.3.3-.4.7-.5,1.2-.1.6,0,1.1.1,1.6-.3-.2-.7-.3-1-.5-.3-.2-.7-.3-1-.5,0-1.5.2-2.7.3-3.7-.8,0-2.9-.8-4.2-1.2-.1,0-.3-.1-.5-.2.3-.6.6-1.2.9-1.9.8-1.9,1.4-4.6,1.6-6.6.1-.7.2-1.4.4-1.9,0-.2-.3-.3-.4-.2-.5.5-1.5.4-2.9-.2l-2-.8c-.7-.3-1.3-.5-1.7-.8,0,0,0,0,0-.1.4-1.8.7-3.6.7-5.3,2.4.4,4.9-.2,7.1-1.9M281.6-.3c-.4,1.5-.4,3.3-.4,3.9,0,.3,0,.6,0,.9.4.5,1.8,1.5,3,2,.2,0,.3-.4.3-.6-1.3-.9-3-2.7-2.2-5.8M298.6.3,230.2,3.7l-1.9,7.8c-1.8,7.1-2.1,7.9-6.2,7.5l-1.6-.2c-.5.3-.7,1.4-.3,1.7,3.2.6,5.7,1.2,8.6,1.9,2.4.6,6.6,2.2,11,3.3,1.2.3,2.4.5,3.6.7-3.5,3.7-5.5,8.4-6.2,13.2-.9,6,.6,11.7,4.2,16.4,4,5.4,10.1,8.6,17.1,10-.3.1-.6.3-1,.4-1.6.4-3.6-.9-5.5-.4-2.5.7-3.9,4.3-6.7,3.9-.7-.3.8-1.9-.8-1.7-1.8,0-.8,3.4-1.5,5.1-.3.7-1,.7-1.2,1.4-.5,2.1.8,3.7.8,5.7-.3.3-.8.4-1.4.3-.2.8.4.7.3,1.4-.8,0-1.7.3-2.3,1.1.2,2,3.1,1.3,4,2.6.1,2-.4,2.9.8,4.6.7.2,1.3.4,2.3.3.7,1.4,1.3,2.9,1.9,4.4-.4,0-.7.2-.8.4.1,3.6.2,6,.2,8.8,0,2.9,0,5.3-.2,9.3.2.4,1.5.6,1.8.1v-1.8c.3-1.9.6-3,1.4-3.6,1.2,1.4,2.9,2.4,5.1,2.4.5,3,3.1,2.5,5.7,1.8.6-2.6,2.7-3.6,4.2-5.2h17c-.6,2.6-.2,4.9.3,7.9,1.8,3.9,8.5,6.4,12,5.3,5.1-1.8,8.6-5.6,8.3-12.1-1.2-3.3-3.9-5.7-7.6-6.9v-3.9c0-6.2,0-11.9.1-15.7.6,0,1.3,0,2,0,.2-.1.3-.9,0-1h-1.1s0,0,0,0c1-.9,1.6-2.2,1.3-4-1-1.3-2.6-1.9-4.1-1.7l-1-14.2c-.3-4.4-.3-4.8,2.1-5.3l.7-.2c.2-.3,0-.9-.2-1-1.6.1-3,.3-4.9.4-1.6.1-3,.2-5.3.2-.2.1-.3.9,0,1h1.2c2.4.1,2.6.7,2.9,5l.4,5.8c0,1.2,0,1.3-2,1.5h-1.5c.2-1.7,1.1-3.7-.2-5.4,1.6-5.6-4.2-6.1-6.7-8.7-.5,0-1-.2-1.6-.2.5-1.8,1.2-2.8,3.3-2.8h1.1c.5-.3.6-1.4.2-1.7-2.3-.2-4.7-.4-7.4-.8-4.1-.6-7.9-1.2-9.9-1.6-.5.1-.8,1.4-.2,1.7l3,.8c3.6.9,4.2,1.4,3.8,5.1-1.7.5-3.3,1.1-4.8,1.5-.4,0-.7,0-1.1,0,0,0-.1.2-.2.3-.4,0-.8.2-1.1.2-2,2.2-2.7,5.2-4.1,7.3-12.9-2.5-17.8-13.4-16-26.1.6-4.2,2.2-8.1,4.7-11.2,2.3,0,4.6-.2,6.7-.7,0,0,.1,0,.2,0,1.2,1.1,2.6,1.9,4.1,2.5,3.1,1.2,6.4,1.2,9.4,0,2.2-.9,4-2.4,5.5-4.3.6.5,1.1,1,1.6,1.6-.5.4-1,.8-1.5,1.2,0,.2.1.5.4.5l.4-.3c.5-.4,1-.4,1.5-.3,1,1.6,1.6,3.5,1.9,5.8.4.5,1.6.6,1.9,0,0-1.4,0-2.8,0-4.1l4.7,2.4c0,.3.2.5.3.7.1.4.2.6.1.7,0,.2-.3.3-.7.4l-2.4.9c-1.5.6-3,1-3.6,1.1-.7,0-1.5,0-2-.2-.2,0-.3.3-.2.5.6.2,1.3.4,1.9.7.7.3,1.4.6,2.1.9.2,0,.3-.3.2-.5l-.5-.3c-.2-.2-.3-.2-.3-.3,0,0,.1-.2.3-.3.3-.2,1.7-.8,2.2-1l2.9-1.2c.3-.1,1-.4,1.4-.5.2,0,.5,0,.6,0,.2,0,0,.5,0,.8l-.9,2.2c-.9,2-1,2.3-2.2,1.9h-.4c-.1,0-.2.3-.2.4.8.3,1.5.6,2.3.9.9.4,1.5.6,2.4,1,.1,0,.3-.3.2-.5l-.5-.2c-.7-.4-.9-.6-.7-1.3,0,.1,0,.2,0,.3,2.7.9,3.7-1.7,2.1-2.8-.4,0-.9.1-1.3.3l1.1-2.7c.7.4,1.4.8,2,1.2.1,0,.2-.1.3-.2,0,0,.1-.1.2-.2-.3-.8-.8-2.1-1.3-3.6l.3-.8c.5-1.1.7-1.6,1-1.9,0,0,0,0,0,0,.1,0,.2,0,.2-.2.2,0,.4,0,.8,0h.4c.2,0,.3-.3.2-.4-.7-.2-1.3-.5-1.9-.7,0-.2-.2-.4-.2-.7,0-.7.5-1.8.9-2.7.5-1,.8-1.7,1-2,.2-.2.3-.4.4-.3.2,0,1.3,2.2,1.5,2.4l2.2,3.9c.3.5.6,1.1.9,1.7-.8,1.5-1.5,3-2.7,4-.5,4.1-2.9,6.3-3.3,10.5,1,4.1,3.9,6.3,6.2,9.2,0,.9-.5,1.2-.3,2.3,1.6.4,1.6-.7,2.3-1.1,6.6,1.7,16.2,1.1,16.8-6.5,1.2,0,1-1.3,1.7-1.7.6-4.5,0-9.8-2.7-12v-1.4c-.8-.3-1.1-.9-2.3-.9-.6-1.1-1.3-2-2.2-2.7l4.4-3.9c.9-.8,1-.8,1.5-.2l2.4,2.6c.2.3.5.5.7.7-.7.7-1,1.9-.4,3.3,1.5.9,2.3-.5,3.5-.8-.1-.5-.2-.9-.1-1.3.7-.6,1.3-1.1,2.2-1.8,0-.2-.2-.5-.4-.5l-.5.4c-.4.3-.8.5-1.1.4-.3-.2-.6-.4-.9-.4-.3-.3-.7-.7-1.3-1.4l-5.1-5.7c.7.2,1.5-.3,2-2.6-3.2-1.7-3.7,0-3.2,1.3-1.5-1.7-1.7-2.1-.8-3.1l.4-.4c0-.2-.3-.5-.5-.4-.8.8-1.4,1.4-2.2,2-.8.7-1.4,1.2-2.4,2,0,.2.2.5.4.5l.4-.3c1.2-.9,1.5-.6,3.3,1.4l1.9,2.2c.5.6.5.6-.4,1.4l-4.5,4c-1.3-.9-2.8-1.7-4.3-2.4,1.2-.4,2.3-.7,3.3-1,.2-.6.1-2.3,0-3.3-.1-.2-.4,0-.6,0,0,.9-.4,1.9-.9,2.4-.5.5-1.7,1-2.8,1.4-.2,0-.4-.2-.6-.3-.1-.5,0-.8.5-1.3l.3-.4c0-.2-.3-.5-.5-.4-.6.6-1.1,1-1.6,1.5-.6-.3-1.1-.6-1.7-1v.5c-.2-.2-.4-.3-.5-.5.1-.4.2-.7.3-.8l1.9-6.1c.4-1.2,1-2.9,1.4-4.2,2.2-1.1,3.5-3.7,4.1-7.3.1,3.7,3.8,3.4,6,1.8,2.2-5.2-4-5.8-6.3-2.7-.4-1.6,0-2.6.4-4.3M249.5,98.4s0-.1,0-.2c0,0,0,0,0,.1,0,0,0,0,0,0ZM287.9,70c2-.1,2.1,0,2.2,1.2v1.8c-.2.4-.2,1.2.2,1.6v1.4c.1.2.1.5.1.7,0,0-.2.2-.3.3-1.1-2.3-3.3-4.2-3.8-6.8h1.5ZM271.1,98.7c10.7,2.2,17.5-6.4,21.6-14.9.5,1.1.7,3,.7,8.2,0,5.7-.9,7-1.7,7.8-.4.4-.9.7-1.4.9-.4,0-.9,0-1.3,0,0,.1-.2.2-.3.4-1.2.2-2.7.2-4.8.2h-16c.9-1.1,2.1-1.8,3.3-2.6ZM302.8,24.8c-.2,0-.3.2-.5.3.1-.4.2-.8.4-1.3,0,0,0,.1.1.2,0,.2,0,.5,0,.8ZM297.8,17.4c-.2-.5-.4-.9-.7-1.2,0-.4.2-.8.4-1.2.3-.7,1.2-1.1,2.9-1.7l2.3-.7c.6,0,1.2,0,1.7,0,0,0,0,.2,0,.3-.1.7-.5,1.7-1.1,3.6l-2.6,7.9c-.2.8-.6,1.8-1,2.6-.1-.3-.3-.5-.5-.8l-2.8-5.1c-.3-.5-.6-1.1-.8-1.6,1,.2,2-.4,2.2-2.1ZM290.1,29.2c0,0,0,.2,0,.2l-.5,1.3c-.4-.2-.8-.4-1.2-.6.7-.2,1.3-.5,1.6-.9ZM245.7,24.2c-.1.1-.2.2-.3.3-1.2-.1-2.5-.3-3.9-.6-4.3-1.1-6.8-2.4-7.7-4.8-.8-1.9-.4-4.1.5-7.7l1-3.9c3.1.3,6.5.6,9.5,1.1-.3,1-1.6.9-1.2,2.5.5.7,2,.4,2.6.9,0,3.3,2.5,4.1,4.8,5.2.4,0,.7,0,1-.1,0,1.2.2,2.4.6,3.5-2.6.9-4.8,2.2-6.8,3.7ZM245,8.8c.5-.7,1.4-1.2,2.3-.8-.3.8-1.5,1.5-2.3.8ZM252.2,24.1c.5-.3.9-.6,1.4-.9,0,.1.2.2.3.4-.5.2-1.1.4-1.7.5ZM256.5,22.2c0,0-.2-.2-.3-.3.5-.2,1-.4,1.5-.5-.4.3-.8.6-1.2.8ZM275.7,14.1c-.3-.4-.7-.8-1.1-1l.8.3c1.1.5,1.7.9,1.9,1.2.4.6.4,2.1-.5,4.3-.3.7-.6,1.4-1,2-.9-.3-2.1-.7-3.5-1,2.1-.3,3.8-2.2,3.5-5.8ZM271.9,12.1c.4,0,.8.2,1.3.4-.5,0-1,0-1.5,0,0-.1.1-.3.2-.5ZM268.1,18.7c.3.2.6.4.9.6,0,0,0,0-.1,0-.4,0-.8,0-1.2-.1.1-.1.3-.3.4-.4ZM273.8,23.3c-3.4,3-8.4,3.3-13.4,1.3,2-1,3.9-2.2,5.5-3.6.3,0,.5,0,.8,0,2.8.4,5.2,1.1,7.2,2.3ZM258.2,8.1c4.2-.2,6.3-2.6,8.5-4.9-.1,1.5-.3,2.9-.7,4.1-1.2,4.7-3,8.6-5.6,11.5-2.2.1-4.2.5-6,1-.6-1-1-2.1-1.2-3.3,2.2-1,3.3-3.3,4.9-5,1.1,0,1.8-.2,2.6-.5.4-.8.1-1-.3-1.7-.9,0-2.8.8-3.2-.3.3-.3.6-.6.9-.8ZM345.6,105.6l-17.1,10.2c-3,1.7-5.4,3.1-6,3.3h-.2c.3-1.5,1.4-4.4,2.3-6.9l6.5-17.1c1.1-2.8,1.5-3,3.9-1.1l3.1,2.4c-.8,1.9-1.9,1.7-1.9,3.8,0,3.8,4.2,6,7.4,4.1.8-.5,1.3-1.2,1.7-2.1h0c2.3,1.9,2.4,2.1.1,3.4ZM449.1,123.6l2.3,1.2c.9.5,1.2.7,1,1.1-.1.2-.3.4-.7.6,0-.3,0-.5-.2-.8-1.4,0-1.6.5-1.4,1.3-.3,0-.7.2-1.1.3l-.9.2c.4-1.2.8-2.5,1-3.7ZM430.5,144.3c-.3,0-.7,0-1.3-.3.5,0,1-.2,1.5-.4,0,.4,0,.6-.2.7ZM437.3,130.8c-2.1,2.3-4.3,4.3-6.5,5.8l-.7-3.6c-.7-3.6-.8-4.3.3-4.6,0-.3,0-.6-.1-.8-2.6,0-5.4-.3-7.1-.5-.3.2-.3.8,0,1.2.8.2,2.2.6,3.4,1.4.7.4,1.3,1.2,1.7,2.3-.3.9.2,2.1.8,2.8,0,.4.2.8.3,1.2l.3,1.5c-2.8,1.7-5.8,2.7-8.8,2.9l-14.5-6.4c-.8-.3-1.8-.8-2.7-1.3-2.2-2.3-3.3-4.3-3-6.6.3-2.2,1.7-4.2,4.4-7.2l18.6-20.8c2.3-2.5,3.6-3.8,4.4-3.8.1,0,.2,0,.4,0l-.2.5c-.9,3-2.9,7.9-3.7,9.3,0,.3.2.5.5.6,1.3-.5,3.2-1.2,6.2-2.1l5.8-1.8c11.5,12.2,5.6,24.1.4,29.9ZM427.1,89.3c.9.4,1.8.6,2.6.7l-.4,1.1c-.7-.6-1.5-1.2-2.3-1.9ZM434.3,98.4c.4.4.8.7,1.2,1.1-.7.2-1.4.4-1.8.5-1,.2-1.6.3-1.8-.3,0-.3.2-1.4.6-2.8.6.5,1.2,1,1.9,1.6ZM443.1,63.6c.3.2.5.5.7.8.4.6.7,1.7.7,3-.6,0-1.4-.3-2.5-.7.4-1.1.8-2.1,1.1-3.1ZM439.7,73.6c.2-.5.3-1.1.5-1.7l1.8.8c1.7.8,1.9,1.1.2,4.9-1.4,3.1-3.4,4.9-5.6,5.8l3.1-9.9ZM435.8,63.4c1.4-.4,2-.4,2.1-.2,0,0,0,0,0,0,0,.3-.2.6-.4.8.1,0,.3-.1.4-.1,0,.3-.1.6-.2.9l-2.6-1.2.6-.2ZM422.8,70.5c1.3-.4,2.6-.8,4.1-1.2.6-.9,1.1-1.7,1.6-2.7l7.8,3.5c-.4,1.2-.9,2.6-1.4,4.2l-3.2,9.7c-1.2-.1-2.4-.5-3.5-1-4.2-1.9-5.7-4.3-6.3-6.5-.5-2.1,0-4.2.9-6.1ZM544,110.9c-3.2-.4-5.2-1.8-6.1-3.6,0-.4-.1-.9-.2-1.3-.1,0-.2,0-.3-.1-.1-.7-.2-1.3,0-2,0-.7.3-1.3.5-1.9,3,3.5,5.6,6.5,8,9.1-.6,0-1.3,0-1.9-.1ZM540.5,99.1c1.4-.8,3.2-1.1,4.8-1.1l-1,.8c-1.5,1.3-2.3,1.3-3.2.6-.2,0-.4-.2-.5-.3ZM553.9,105.2c0,.6-.2,1.1-.4,1.5-.2,0-.5,0-.8,0,.2.9-.2,1.2-.3,1.8-.6.7-1.3,1.2-2.1,1.6-1.1-2.5,0-4.2,3.4-7.2.2.8.2,1.6.1,2.3ZM563.2,46.2c8.6-7.1,17-4.1,23.3,3.5,2.1,2.6,3.9,5.5,3.2,8.7-.6,3.2-4.8,7-7.9,9.5l-12.8,10.5c-1.7,1.4-2.5,1.5-6.4-3.1-2.1-2.5-3.6-4.8-4.7-7.1.6-.9,1.1-1.7,1.6-2.6,1.4-2.2,2.7-4.1,4.9-7.1,0-.4-.9-1.2-1.3-1l-1.3,1.7c-1.9,2.4-2.8,2.6-5.9.8,0-6,3.3-10.6,7.2-13.8ZM553.7,72l-.3.6c0,.6,1,1.1,1.4.9.1-.2.2-.4.3-.6,1.8,1.3,3.5,3,5.4,5,3.8,4.2,3.7,4.4,1.3,6.4l-13.7,11.2c-.5-.1-1-.3-1.5-.3-2.9-.4-5.6.6-7.5,2.6-.6-.5-1.2-1.2-1.8-2-5.4-6.5-7.5-15.3,1-22.3,5.6-4.6,10.5-4.8,15.5-1.6ZM373.8,4c.2.5,1.1.6,1.5.2l.4-1.8c.4-1.7,1-2.2,3.5-2.2.1.1.3.3.5.5l1.5,1.7s0,0,0,0h0s-1.7,1.3-1.7,1.3c-.4.3-.7.5-1.1.7l-.5-.4c-.2,0-.3.2-.3.3,0,0,.2.2.3.3-2,.9-4,.3-9.1-2.3l-5.3-2.6M432.8,31.6v.7c0,1.7-.1,2-1.6,1.6,0-1.4-.6-2.5-1.8-2.5-1.1,0-1.5.6-1.5,1.5l-4.5-1.4c-1.7-.5-1.7-.6-.8-1.8l7.1-9.3s0,0,0,0c1.3,2.6,1.8,4.9,1.2,7.3l-.7,3.1c.3.9,1.7,1.4,2.6.9ZM423.3,24.8l-.6-1.5c-2.1-5.2-1.9-7.5,2.3-10.4,1.4,1.9,2.6,3.6,3.6,5.2l-5.3,6.7ZM409.5,41.9c-1.5,1.9-3.1,2.1-4.6,1.8l-2.1-.4c-.5.2-.6,1.2-.4,1.5,1.7.4,3.9,1,5.9,1.6.2,0,.5.1.7.2-1,2.6-1.9,4.6-3,7-.3.7-.6,1.3-.9,1.9l-11.8-7.4c-.8-.5-1.3-.9-1.7-1.2-.1-1.2-.2-2.6-.3-4l3.6-13.8c.2-.8.4-1.5.6-2.1,1.7,1.1,2.9,2.7,4,4.4,2.7,2,7,1.6,9.7,0,3.1,1.9,7.2,1.1,9.3-2.1.8-1.2,1.2-2.6,1.2-4,.4.9.8,1.7,1.2,2.7,0,0,0,0,0,0l-1.6,2.1c-4.7,5.9-7.6,9.3-9.6,11.8ZM410.7,47.2c1,.3,1.9.6,2.7.9-1.1.9-2.1,2.1-3.2,3.4-.5-.8-.3-1.8.2-3.4l.3-.9ZM392.9,52.9c-.2,0-.3.2-.4.3,0-.2,0-.4-.1-.6l.6.4ZM397,11c-.8-1.3-1.1-2.1.3-5.5l1.5-3.6,5.3.5c1.8.2,3.1.3,4.1.5,1.7,3.1,3.1,5.8,4.7,8.9,1.7,3.2,3.1,6.1,4.6,9.3-.3-.3-.8-.6-1.2-.9-3.4-2.2-7.5-1.2-9.6,2-.5.8-.8,1.7-1,2.5-.2-.1-.3-.2-.4-.3-.7-1.9.5-3.5,0-5.1-.4-1.6-2.3-2.2-2.5-3.7-2.1-.3-3.9-1.6-6.1-2.5.4,0,.9-.3,1-.8l-.7-1.2ZM407.3,25.8c.2-1.2.7-2.3,1.3-3.2,2.3-3.6,5.3-3.3,7-2.2,3.1,2,2.5,5.7.7,8.3-2.1,3.2-4.9,3.5-6.8,2.2.9-2.6-.5-4-2.2-5.2ZM416.9,2.2s0,0,0,0c-1.5.2-2.7,0-3.7-.6,0-.3,0-.6,0-.8M422.7,0c.1.1.3.1.5.1-.7.3-1.3.6-2,.8-.4-.5-.7-.9-1.1-1.4M423.7-.1,349.3-.4c2,1,2.1,1.4.5,2.9l-.9.9c.2-1,.3-2.1.1-3.4M340.7,10.1c.4,0,.8,0,1.1,0-.5.4-.8.4-1.1,0ZM343.3,15.8c-.8-1.5-.6-2.1.8-3.4l8.6-8.3c1.7-1.6,2.1-1.7,3.7-.8l10.1,5.2c1.8.9,3.1,1.6,3.7,2.3.6.6,0,1.7-1,2.9l-1.5,1.8c-.1.7.8,1.5,1.5,1.3,1.6-1.6,3.6-3.8,6.4-6.5,1.4-1.4,2.7-2.6,4-3.8,0,0,.2.2.2.2.1,0,.3-.2.3-.3l-.2-.3c.8-.8,1.7-1.5,2.6-2.3l1.9,2.2c.4.5.4.5,0,.8l-.7.7c-.5.4-.9.8-1.3,1-.8.4-1.3,0-1.9-.4-.2,0-.3.2-.3.3.4.4,1,1,1.5,1.6.1-.2.8-.8,1.6-1.5l2.2-2c.5-.4.9-.8,1.5-1.2,0-.1-.1-.3-.2-.3l-.2.2c-.8.5-1,.4-2.1-.9l-3.5-3.9c.5,0,1.1,0,1.8.1l8.5.8c.8.3,1.7.4,2.5.6.2,0,.3,0,.5,0-.5,1-1.4,2.9-1.7,3.2-.3.3-.7.2-2.1-1l-.5-.4c-.4,0-1.1.5-.9.9.9.9,2.1,2.2,3.7,4,1.6,1.8,2.7,3.2,3.7,4.5-.6-.2-1.2-.4-1.9-.5-2-.3-3.6.8-5.7,1-1.8-1.2-3.6-2.4-5.4-3.7-.7,0-1.8,1.4-1.4,2.2l2.3,1.8c.5.4.9.8,1.3,1.2-2.1,2.5-1.2,6.6,1.2,8.8-.2.9-.4,2-.7,3.1-.2-.2-.3-.5-.5-.7-4.8-6.3-12-9-19.7-7.9-4.3.6-8.1,2.4-11,5.2-1.4-1.2-3.3-1.2-4.9-.5-.8.3-1.6,1.1-2.5,2-.2-.4-.4-.9-.7-1.3l-3.8-7.8ZM385.6,30.1l-.3,1c-.9-1.2-1.7-2.5-2.4-3.9,1,.8,1.9,1.7,2.7,2.8ZM346.8,45.7c-1.1-.2-1.8-.4-1.9-.6-.1-.2-.2-1.1.1-2.6.7-3.6,2.5-5.3,4.5-6.1-.2,3.1,0,6.3.6,9.9l-3.3-.7ZM350.5,29.5c-.4-.4-1-1.4-1.9-3,.8-.8,2.9-2.9,3.9-3.3.3-.1.7-.1,1,.2.2.2.4.4.5.7,0,.2.2.3.3.4-1.3,1.5-2.5,3.3-3.3,5.4-.2,0-.3-.2-.5-.4ZM358.5,51.6c-2.7.4-4.3.5-4.7,0-.3-.3-.7-1.2-1.1-2.7l3.8.7c2.5.5,2.9.6,2.9,1.8h-.8ZM359.1,47.6c-.7.3-1.5.2-2.9,0l-4.1-.8c0-.3,0-.6-.1-.8-.6-4-.3-7.3.5-10,.6,0,1.2,0,1.7.2,4.7.9,7.5,3.7,6.5,8.6-.3,1.6-.8,2.5-1.7,2.9ZM360,51.4c.1-.7.2-1.4.4-2.1.2-.9.7-2.4,1-4.1.4-1.9.5-4.1-.1-5.9-1-3.2-3.5-5.2-6.7-5.9-.4,0-.8-.1-1.1-.1,3-6.1,9.2-8.4,13.7-9.1,4.1-.6,7.9-.4,11.1.6-1.6,0-3.4.2-5.3,0-1,1.6-2.9,2.2-3.5,4.2.7,1.5,1.7,4.4,3.9,5.5.8.4,2.4.3,3.4.6,2.9,1,4.5,3.2,6.3,1.2.3.2.6.2.8.2l-2.8,11.6c0,0-.1,0-.2,0l-20.9,3.1ZM388.1,86c-1.9,3-3.1,4.9-4.2,6.1-1.8-1.3-3.7-2.7-5.4-4.1-.6-.5-1.1-.9-1.7-1.4.9,0,1.8,0,2.8.3.6-1.6,2.3-2.9,5.6-5.3l10.8-8-7.8,12.5ZM401.8,64.1l-13.5,10.4c-2.7,2-5,3.6-5.5,3.9h-.2c.1-1.5.9-4.4,1.5-7l4.4-17.5c.1-.5.3-.9.4-1.3,1,.2,1.6.8,2,1.9-.3.4-.5.7-.6,1.1-1.3,5.5,6.2,8.8,11.1,5.6.4-.9.5-1.8.5-2.7l1.3.8h0c-.2.5-.5.9-.7,1.5,0,.3.4.6.9.8l-1.6,2.6ZM405.9,72.4c-.5,0-1,.2-1.4.3l5.1-8.1c-.1.5-.2,1-.2,1.6,1.7,2.5,3.9,4.2,6.6,4.8-3.4.5-7.5,1-10,1.4ZM422.4,47.9c0,0-.2,0-.3,0,0,.2-.2.3-.3.5-.4.3-.7.6-1.1.9l-1,.8c1.4-1.7,2.8-3.1,3.9-3.8.4-.2.8-.4,1.3-.5-.7.6-1.5,1.3-2.5,2.1ZM424.7,35.5c-1-.1-1.9,1.3-1.6,2.1l2.8,2.1c2,1.5,2.1,2.3,1.5,3.4,0,0,0,0,0,0-4.4-.2-8.8,1.2-12.4,3.8l-1.6-.7c-1.4-.6-1.6-1-1.4-1.8.2-.7,1.2-2.2,2.9-4.6l4.1-5.7c.8-1.1,1.2-1.2,2.8-.7l6.9,2.1c.4,1,.9,1.8,1.2,2.4h.5c.2-.5.4-1,.5-1.7,1.8.6,2,.8,2,2.3v2.3c-3.6-2.4-6.2-4-8.2-5.5ZM434.9,11.4c-.6.2-1.3.4-2.1.4,0,.6-.4,1.2-.9,2.1-.8-.9-1.8-2.1-2.9-3.4,1.7-.9,3.8-2,6.3-3.2h.2c.1.6-.1,1.3-.6,2.4l-.5,1.1c0,.3.3.5.6.6ZM438.2,44.2v-5.9c.5,0,1.1-.2,1.5-.4.5,2.9,1.4,5.9,2.7,8.7-1.2-.7-2.7-1.5-4.2-2.4ZM446.3,9.1c-1.1,1.6-2.1,3.2-3,4.9,0-.3,0-.7,0-1.1-.2-.3-1-.4-1.2-.2-.2,1.1-.4,2.5-.5,3.8-1.2,1.3-2.2,2.3-3.3,3.4,0,.3.5.8.8.8l.9-.8c.4-.4.8-.6,1.2-.8-1.7,4.8-2.4,10-1.9,15.3-.4-.2-.8-.3-1.3-.3l-.4-14s0,0,0-.1c1.1-2.5,2.3-4.9,3.8-7.8,0-1-1.5-1.7-2.5-1.3l-1,1.7c-.1.2-.3.4-.4.6,0-.7,0-1.4,0-2s-.4-.7-.7-.8c-.2.1-.4.3-.7.4,1.1-1.9,2.2-3.5,3.4-5.4.1-.1.2-.3.3-.4l4.2-2.1c.6.9,1.5,1.5,2.6,1.4.6-1,.8-2.1.8-3.1l1-.5c-.2,1.1-.4,2.4-.7,3.7-.4,1.7-1,3.4-1.3,4.6ZM447.7,21l6,2.6c-3,2.9-4.5,4.3-5.8,4.5-.3-2.4-.4-4.8-.2-7.1ZM464.9,24.1c.1.2.3.5.4.8-.4-.2-.7-.3-1.1-.5l-1.2-.5c0-.3.1-.5,0-.7h-.3c0-.1.2-.3.2-.3.8.2,1.5.6,2,1.3ZM464.7,21.2l.2-.2.3.5c-.1-.1-.3-.2-.4-.3ZM463.6,27.9c.2,0,.3.1.5.2,0,0,0,0-.1.1-2.1,1.4-3.6.4-4.6-.5-.2,0-.5.2-.5.4.6.9,1.6,2,2.2,2.4.2-.1.5-.3.9-.4.3-.1.7-.3,1.1-.4-.4.8,0,2,1.3,1.9-.5-.9-.1-1.9-.6-2.3.1,0,.3-.2.4-.2.3-.2.6-.4.8-.6,0,0,0,0,0,0-.1,1.1.7,2,1.6,2.4-1.3,4-.7,8.2,1.7,11.6-1.4.5-2.8.7-4.2.5-.6-2-3.4-3-5.7-2.7-.5-.4-1-.9-1.5-1.4-1.5-1.6-2.8-3.3-2.6-5.5.2-2.1,2.7-4.8,4.6-6.6l.8-.7,4,1.7ZM481.9,10.7c0,.2,0,.4,0,.6.1,2.4,1.1,4.8,2.7,6.2,1,.9,2.3,1.4,3.7,1.7-.4.6-.9,1.2-1.6,1.8-1.6,1.6-3.2,2.5-4.8,2.8l-2-1.5c-2.6-1.9-3.5-2.7-4.1-3.2-.3,0-.5,0-.7.3,0,0-.1.2-.1.2.2.5.3,1.2,0,1.6,0,.1-.2.2-.4.4-.8-.6-1.7-1.3-2.5-2.1-1.5-1.4-2.1-2-2.2-2.6l12-6ZM474.5,11.7l4-3.9c.7,1.5.6,1.6-1.3,2.5l-2.8,1.4ZM483.5,9.8l3.9-2c2.3,2.9,3.3,6.5,1.6,9.9-3.2-.6-5.5-2.4-5.7-6,0-.7,0-1.4.1-2ZM479.8,28.2c-.2-.2-.3-.5-.4-.7,0,0,.1,0,.2.1l7.7,5.8c1.9,1.4,2.4,1.9,2.4,2.7,0,1-.6,2.5-1.8,3.9-2.5,3.3-6.1,4.2-9.8,3.2,5.2-5.3,3.8-11.8,1.6-15ZM470.4,27.6c1.1-1.2,2.5-1.9,4-2,3.4,6,1.1,11-2.2,14.2-3-2.6-4.8-6.1-3.4-9.7.2,0,.4.2.6.3.3.1.6,0,.8-.2,0-.7-.1-1.7.2-2.6ZM470.8,21.1c.6.6,1.1,1.2,1.6,1.8-.9.7-2,1.6-3.2,3-.2-.4-.4-.7-.7-1.2l-2.5-4.9.4-.4s0,0,0,0c.2.1.4.2.6.3,0-.2.2-.5.2-.8.7-.1,1.5.4,3.4,2.3ZM467.1,29.4s0,0,0,0h0s0,0,0,0ZM467.1,25.5h0c0,0-.2,0-.3,0,0-.3,0-.5,0-.8.2.4.3.7.4.8ZM454.3,18.5c-.9-1.3-.8-3,1-4.2,0,.6.4.9.5,1.4.3,0,.6,0,.9,0l-.5,1.9-1.2,1.3c0,.1-.2.2-.3.3-.2-.2-.3-.4-.5-.6ZM456.8,13.6c.2,0,.3,0,.5-.1v.4c-.2,0-.3-.2-.5-.2ZM459,5.9c-.4-.9-.8-1.6-1.1-2.2-.3-.5-.4-1-.4-1.4.2-.2.3-.3.5-.5l.2.3c.5,1.1.9,1.8,1.2,2.5v.6c-.2.3-.3.6-.4.8ZM456.5,5.9l-2-.5s0,0-.1,0c.3-.4.6-.7.9-1,0,0,0,0,.1,0,.2.2.6.7,1.1,1.5ZM450.4,4c-.5-.5-.7-1.1-.7-1.9V.1s0,0,0,0M453.2,6.9c.3,0,.6.1.9.2l2.8.7c.3,0,.6.1.8.2v.2c.1,0-.3.3-.3.3,0,.4.3.9.5.9.1,0,.2-.1.3-.2,0,0,0,.2,0,.3l-.4,1.7c-.3.2-.6.5-.5.8,0,0,.1.2.2.3-.6.2-1.4.6-2.2,1.1-.7.5-1.3,1-1.7,1.5.5-1.8.7-4.3-1.9-4.2-1.3,1.5-.3,4.4,1.7,4.6-.8,1.3-1,2.7-.5,4.1l-4.5-2c.9-3.8,2.6-7.3,5-10.5ZM516.8,51.1c-.2,0-.4.4-.4.7v.2c-1.8,2.5.1,10.4-1.9,9.6,0,0-.1,0-.2.2l2.1-18.7c.5.6,1,1.3,1.5,2,.6.7,1.1,1.4,1.6,2l-2.7,4.1ZM519.1,51.4c.3-.4.5-.8.8-1.2l1.1-1.6c.8.8,1.5,1.4,2.3,2-1.1.6-2.5.9-4.1.8ZM526,47.8c-1.3.2-2.6,0-3.9-1,.9-1.3,1-1.2,2.6-.2l1.4.9c0,0-.1.2-.2.2ZM529.5,35.4c1.1-1.7,2.1-2.9,3.1-3.9,1.6,4.3,1.1,8-.8,11.3-.2-1.3-.8-2.5-1.5-3.5-.5-.7-1.2-1.4-2-2l1.2-1.8ZM526.9,39.4c.4.8.6,1.6.7,2.6-1.6-1-1.6-1.1-.7-2.6ZM525.6,37.7l-5.1,7.8c-.3-.3-.6-.7-.9-1-1.9-2.5-1.8-2.7-.7-4.3l3.3-4.5s0,0,0,0c1.4.5,2.4,1.2,3.3,2.1ZM525.6,6.6c-.2.3-.3.4-.4.4,0,0-.1,0-.2,0,.2-.1.4-.2.6-.3ZM524.1,10.1c.5,1.3.6,3.1.5,4.3.2.3.8.4,1.1.1.1-1.3.4-2.8.6-4.3.2-1.3.5-2.7.8-4,5.4-.8,8.5,3.9,9.4,8.6.2,1,.3,1.9.2,2.8-.5.8-1.2,1.8-2.1,3.1l-2.7,3.7c-.2,0-.5.1-.7.2-5.8,1.1-9.1-4.1-10-8.4-.8-3.9.2-6.4,1.8-8,.5.8.8,1.5,1,2ZM520,3.2c.9,1.4,1.8,2.8,2.5,4-3.3,2.3-4.9,6.3-4,10.5,1,5.3,5.9,9.2,12.5,7.9,0,0,0,0,.1,0l-12.4,7c-.5-.2,2,5.6,1.4,5.4-.6-2.5-1.4-5.1-2.4-7.3-.8-.4-2.4.3-2.8,1.2.3,1.4.5,3,.5,4.8-.4.2-.6.7-.4,1l.4.2c0,.8,0,1.7-.2,2.5l-.3-.3c-.5,0-1,.7-.8,1.3.2.4.5.8.7,1.2-1.2,5.4-4.4,11.2-11.8,15.7-16.1,9.8-36.3,6.5-49-13.9-.2-.3-.4-.7-.6-1-.4-1.1-.3-1.3.4-1.6l.4-.2c0-.1,0-.3-.2-.3-.7.3-1.1.4-1.5.6-1.4-2.6-2.5-5.1-3.3-7.5,1.9,1.9,3.7,4.1,5,5.3.6.6,1.2,1.1,1.8,1.7-.9.7-1.4,1.8-1.4,3.3,1,2.8,6.5,3.4,8.7,1.5,3.4,1.4,6.6,1.6,9.5.6,5.2,3.1,11.6,2.3,15.6-2.8.2,1.1.3,2.2,1.6,2.3.6-.6-.2-1.6-.2-2.4h-1.2c1.7-2.4,2.3-4.9,2.6-6.7.2-.3.6-.3,1.4.3l9.4,7c.2.1.3.2.5.4-.2.5-.2,1.2-.4,1.7.8.7,2.3,1.2,2.8.2,1.1.9,2.2,1.8,3.1,2.5.3,0,.5,0,.7-.3.4-2.6,1.6-5.4,2-6.9,0-.3-.7-.9-1-.7l-.7.3c-2,.8-2.3.6-5.3-1.6l-16.6-12.4c1.7-.3,3.4-1.2,4.9-2.7,1.8-1.7,2.7-3.6,3-5.5h1.5c1.8-.2,5.7-.3,6.8,0,.4.2.8.8.9,1.6v.8c.3.2.8.2.9-.1-.1-1.2-.2-2.1-.3-3.4,0-1.3,0-2.5,0-3.7-.1-.2-.6-.2-.8,0v.8c0,.8-.3,1.4-.6,1.7-1,.6-4.8.8-6.8.9h-1.3c0-1.1-.2-2.2-.5-3.3-.8-2.7-2.7-5.3-5-7.8l4.2-2.1,3.6-.2c0,.4-.1.9-.2,1.4-.4,2-.7,3.7-1,4.8,0,.3.8.6,1.1.3l.3-1.2c.4-1.4,1.2-2.3,2.4-3.2.9-.6,1.9-1.2,2.9-1.8.3.3.4.7.5,1.4v.8c.3.2.8,0,.9,0,0-1.1-.2-1.9-.2-2.8M505.2-.6c-.5.3-.9.6-1.3.8M492.5-.3,493.6,2h-2.4c-2.2.2-3.8.5-5.1,1.1M474.3-.6l1.4,2.7c-.6.6-1.2,1.3-2.1,2.1l-4.6,4.5c0-.4.2-.9.4-1.2-.8-.5-1.3-1.4-2.4-.8,0,1.3-.3,3,.9,3.2l-4.6,4.4-.6-1.1c-.3-.6-.5-1.1-.8-1.6l1.2-5.1c1.3-.7,2.5-1.2,4-1.9.2-.2,0-.9-.4-1l-.8.3c-1,.3-1.6.5-2.2.2M469.2.2c1,1.3,2.8.4,4.1-.2M194.8,36.8c-8.5,10.2-22.2,14.8-35.5,4-7-5.7-10.3-12.2-6.1-21.1,0-.7-1.4-1.7-2-1.3-2.8,4.6-5.3,8.5-7.2,10.7.9.5,2.7,2.7,3.8,4.1,1,1.2,4,4.9,7.9,8.1,10.4,8.5,19.9,10.8,28.4,9.8,8-1,14.8-5.3,19.6-11.1,5-6,7.3-13.1,6.5-20.6M161.2-.6c2.4,1.7,4.8,3.5,7.5,5.7,4.1,3.3,7.8,6.4,9.7,8.2.6.2,1.8-1,1.4-1.7l-2.7-2.8M110.2,171.9l19.3-7.1c5.6-2.1,6.3-2.2,7.8.4l.6,1c.5.2,1.3-.2,1.3-.6-.9-2.1-1.7-3.9-2.5-6.1-.8-2.1-1.4-3.9-2.3-6.5-.3-.3-1.3,0-1.4.4l.4,1.5c.8,3.1,0,3.5-5.5,5.5l-6.9,2.6c-1.9.7-2.6.8-2.9,0-.5-1.3.3-2.5,2.6-6.8l3.2-6c1.5-2.9,2.5-4.8,3.4-6.2.4-.5.6-1.1.9-1.2.3,0,.6.4,1,1.1l.7,1.1c.4.2,1.3-.3,1.3-.7-.7-1.7-1.4-3.2-1.9-4.7,1.2.6,2.6.9,3.9,1,1.4-.8,3.2-1.2,4.6-1.9.9-2.1,2.6-2.6,2.7-5.1.6-12.5-19-9-14.7,2.4,0,.9-.3,1.8-.8,2.8-2.8,5.7-6.1,11.6-10,18.8-.6,1-.9,1.5-1.3,1.6-.4.2-1.1-.1-2.1-.6l-6.3-3.1c-4-1.9-7.6-3.9-9-5.1-1.4-1.2-2.7-3-3.4-4.4-.4-.2-1.2.1-1.3.6.7,1.5,1.4,3.3,2.1,5.2.7,1.8,1.4,4,2.1,5.9.4.3,1.1.1,1.4-.4l-.2-1.6c-.1-.7,0-1,.2-1.1.2,0,.5,0,1,0,1,.3,4.7,1.8,6,2.5l7.9,3.6c.7.4,2.7,1.2,3.6,1.7.4.3,1,.8,1.2,1.3.2.6-.8,1.1-1.8,1.4l-6.1,2.3c-5.6,2.1-6.5,2.3-7.9-.7l-.5-1c-.3-.2-1.3.2-1.3.6,1,2.2,1.7,4,2.5,6.1.9,2.4,1.5,6.1,2.4,8.7.3.3,1.3,0,1.4-.4l-.4-1.4c-.9-3.2,0-5.6,5.5-7.7ZM537.3,204.5c-.6-.3-1.6,1.2-1.5,1.8,3.5,3.6,5.5,7.1,5.8,9.2.1,1.7-.3,3.5-3.5,10.6-1.6,3.5-2.8,5.4-3.9,6.5,0-1.8.2-3.7.4-5.5.3-3.3.7-7,1.2-10.5-.5-.6-1.8-.9-2.5-.3l-.5,2.6c-.4,1.9-.9,2.8-1.5,2.7-.7,0-1.7-.6-3-1.5-6.6-4.5-16.7-12.5-19.8-15.4,6-3.8,14.6-8.6,20.9-12.3,2.9-1.7,3.9-1.8,4.5-1.8.7,0,1,1.1,1,3.4v2.8c.6.5,1.9.5,2.5,0,0-3.5.4-8.2.8-12.6.3-4,.8-7.8,1.3-12.2-.4-.7-1.8-.9-2.4-.3l-.6,3.4c-.5,3-2.3,5.4-7.2,8.3l-24.8,14.5c-1.7,1-2.4,1.1-2.7,1-.3,0-.9-.5-1.8-1.1-6.2-5.2-11.7-9.9-16.3-14.1-4.8-4.4-7.4-8.1-7.5-11.1v-2.3c-.5-.6-1.9-.7-2.5,0,0,3-.2,5.8-.5,9.3-.3,3.8-.7,6.9-1.2,10.3.3.8,1.7.9,2.4.4l.5-2.5c.3-1.7,1.1-3.1,1.6-3.1.7,0,1.9.7,3.1,1.6,2.8,2,16,11.9,19,14.7-3.3,2.2-9,5.4-13.7,8,0,0,0,0,0,0l.7-2.1c-.1-.6-1.7-1.2-2.2-.8-.7,1.8-1.4,3.3-2,4.8-.7.4-1.3.7-1.9,1.1-3,1.7-4.8,2.5-5.6,2.5-.6,0-1.1-1.3-1-3v-2.7c-.6-.6-2.1-.7-2.4,0,0,2.8-.3,7.2-.6,11-.3,3.5-.7,6.7-1.2,11.2.3.6,1.8.8,2.4.4l.9-3.1c.7-2.1,1.8-3.6,3.8-5.1-.6,1.2-1.2,2.4-1.9,3.8,0,.6,1.5,1.5,2,1.1l1.1-2c2.8-5,4.2-4.6,13-.6l30.1,13.5c8.8,3.9,9.9,4.6,8.2,9.6l-.9,2.6c.3.7,1.7,1.2,2.2.8,2-4.7,3.1-7.4,4.7-10.8l3.5-7.6c3.9-8.5,7.6-16.3,9.7-20.4-1.7-2.2-9.2-8.3-10.1-8.7ZM522.2,231.8l-29-13.1c-2.3-1-4.1-1.9-5.5-2.6l14.8-8.5c1.2-.7,2.1-1,2.4-1,.3,0,1,.3,1.9,1,7.4,6,15.5,13.4,17,14.7,3.6,3.2,7.4,6.8,7.7,11.9-2.1.5-4.4-.3-9.2-2.5ZM281.7,220.2c.5,1.3.7,2.7.3,3.7-.4,1.3-2.4,3.2-4,4.5-1.7,1.5-2.9,2.6-3.6,3.2-.5.3-.8.5-1,.3-.3-.4-.9-5.2-1-5.8l-1.2-9.2c-.4-2.9-.9-7.5-.7-8.6,0,0-.2-.2-.3,0-.2.3-1,1-2.7,2.6l-6.3,5.7c-1.9,1.8-2.3,2-2.9,1.5-.2,0-.4.2-.4.4.9,1.6,1.8,3.4,2.3,4.5.3,0,.6,0,.8-.4-.2-.6-.4-1.6-.4-2.6,0-1.1.9-2.3,2.9-4l3.6-3.2c.6-.6.9-.7,1-.6.1.2.2.5.3.9.3,1.1.4,2.6.8,5.5l1.2,9.5c-.8.2-1.2.8-1,1.7-9.8-5.8-19.9-2.6-26.2,1.3-6.3,4-11.3,9.9-15.3,15.8-.7,1-1.8,1.1-2.9,1l-5.9-.8c-.8.3-1.3,1.3-1,2.1l3.6,2.4c2.1,1.4,1.9,1.6,0,4.3l-14.5,21.4c-5,7.3-5.7,8.3-9.9,6.2l-2.6-1.3c-1.1,0-2,1.9-1.5,2.7,3.2,1.8,6.4,3.8,10.1,6.2,3.6,2.4,6.5,4.5,11,7.7.9.2,2.3-1.4,1.9-2.4l-3.5-2.8c-3.5-2.8-2.9-4.1,2.1-11.4l14.5-21.4c1.9-2.7,2-2.9,3.7-1.8l11,7.3c1.4.3,4-2,3.6-3.8l-11.7-7.8c-1.7-1.2-1.7-1.3.2-4l2-2.9c3.5-5.1,8.9-12.2,13.9-15.7,4-2.6,7.9-2.9,11.1-.7,3.4,2.2,4.7,6.4,5.2,9.9.2,1.3.5,2.1,1.6,2.8,2,1.3,5,1,6.4-1.1,1.8-2.7.7-6.3-2.1-9.5l6-5.4c1.7-1.5,3.1-2.7,4.4-3.9-.2-.9-1.2-3.1-2-4.4-.3-.1-.6.1-.8.4ZM270.2,230.1c0,0-.1,0-.2-.1h.4s0,.3,0,.3c0,0-.2-.1-.2-.2ZM7.2,61c1.2.5,1.4,1.2,1.6,2.9l1.5,13.4c.1,1.3.2,2.8.2,4,.1.1.3.2.4.2.1,0,.2,0,.3,0,.9-1.3,3.2-4.2,5-6.4l2.5-3c2.1-2.5,3.8-4.4,5-5.5.5-.5,1-.7,1.7-.5l.9.2c.2-.1.3-.5.1-.7-.9-.2-1.8-.4-2.8-.7-1.1-.3-2.1-.6-2.9-.9-.2,0-.4.5-.3.7l.5.2c1,.4,1.2.7,1.1.9,0,.2-.2.5-.6,1-.8,1.1-3,3.8-4.4,5.5-1.1,1.3-3.1,3.8-4.5,5.4-.5-3.5-.9-7.1-1.2-10.7-.3-2.3-.3-4-.3-4.3,0-.2.4-.3,1.5-.2h.4c.2,0,.3-.5.2-.6-1.2-.3-2.2-.5-3.4-.9-1.2-.3-2.1-.6-2.9-.9-.3,0-.4.5-.3.7l.5.2ZM196.7,194.1c.3.2.6.3,1,.3.3,0,.6,0,.8-.1,1.6-3.3,5.6-10.5,9-16.2l4.6-7.6c1.1-1.8,2.1-3.5,3.1-5.1.9.7,2,1.4,2.9,2.1.9-.9,1.8.2,2.6-.2,1.7-.3,3.1-.8,4.4-1.4.1.6.2,1.2.3,2,0,0,.4,0,.4,0v-.4c-.1-1,.2-1.1,1.9-1.4l4-.6c2-.3,3.2-1,3.8-2,.5-.8.6-1.9.5-2.9,0,.2.2.3.3.5,3.2,2.4,7.4,1.2,8.7-2.1-.2-3.2-1.4-5.2-4.2-5.8-1.2-.2-2.4.8-3.5,0-1.4,1.5-2.1,3.4-1.9,5.3-.3-.5-.7-1-1.2-1.3-.9-.6-2.1-.7-3.3-.6,0-1.6-.3-3.2-1.4-4.6-.7.1-.6-.5-1.4-.3.2-1-.3-1.2-.5-1.7-7.9-4.6-16.9-.2-16.8,8.2,0,2.5.9,4.2,2.2,5.6-1.5,2.6-3.2,5.5-4.4,7.7-2,3.3-5.6,9.7-8.2,13.7-2.4-7.9-4.5-15.7-6.6-23.7-1.4-5.2-2.1-8.9-2.2-9.6.1-.5.7-.8,3.3-.9h1c.5-.3.5-1.3,0-1.7-1.1,0-2-.2-3-.2.7-.8,1.4-1.4,2.2-2.2,0-.2-.3-.7-.6-.6l-.7.6c-.9.8-1.3.6-3.1-1.1l-4.2-3.9c-1.7-1.6-4-2.2-6.3.1-.4.4-.7.9-1,1.4-.5,0-1,0-1.5,0-.9.1-1.3,1.7-2.3.5,0,0,0,0,0,0l-2.9-2.8c-1.1-1-2.3-2.3-3-3-.2,0-.3,0-.4.1-.4,1.3-1.1,2.8-1.5,3.6,0,.2.3.5.5.5h.4c1.2-.4,1.3-.3,2.8,1.1l3,2.9c-.4.7-.8,1.3-1,2.3.5,1.1.9,2.3,1.1,3.7,2.3,2.4,5.3,2.6,7.6,1.2l.5.5c1.8,1.7,2,2,1.3,3l-.5.7c0,.3.4.6.7.5.7-.8,1.4-1.6,2.3-2.5,0-.1.2-.2.3-.3l8.1,29.6c.8,2.9,1.6,6.2,2,9.1ZM230.9,157.1c2.2-.2,3.9.5,4.3,2.7.4,2.6-1.2,3.7-4,4.2l-3.7.6c-.1,0-.3,0-.4,0,1.4-1.8,3.3-4.6,3.7-7.5ZM184.5,152.1l-.4-.4c.2-.3.4-.6.6-1,.6.7,1,1.5,1.4,2.7-.4-.2-.9-.7-1.6-1.3ZM187.9,148.3c-.9-.1-1.8-.2-2.6-.3,0-.3,0-.7,0-1-.8-1.7-2.4-3-4.3-3.6,1.4-1.1,3.1-.8,4.5.6l3.6,3.4c.6.6,1,.9,1.2,1.3-.8,0-1.6-.2-2.4-.3ZM159.8,87.5c-2.3-1.7-2.6-2.7-2.4-3.2.3-.5.8-1.2,2.2-2.3,3-2.3,10.9-8.1,15.7-11.6,3.8-2.7,11-8.1,15.9-11.4-1.2,9.9-2.8,19.7-4.4,29.5-1,6.5-2,10.9-2.3,11.7-.4.5-1.2.6-4.1-.6l-1.1-.5c-.7.1-1.2,1.2-.9,1.8,3,1.6,5.5,2.9,8.6,4.7,3,1.8,5.2,3.1,7.1,4.5.8,0,1.4-.9,1.2-1.6l-1.2-.9c-2.8-2.1-3-4.2-2.3-9l5.7-37c.6-3.6,1.3-7.7,2.3-11-.3-.3-.6-.6-.9-.8-.3-.2-.6-.3-.9-.3-3.4,3-11.4,9-18,13.7l-8.8,6.3c-7.3,5.2-13.4,9.2-17.3,11.3-1.8.9-3.3,1.1-5.1.3l-2.2-1.1c-.6.1-1.2,1.2-.9,1.8,2.4,1.2,4.6,2.4,6.9,3.8,2.7,1.6,5.3,3.2,7.1,4.4.7,0,1.4-.9,1.2-1.6l-1.2-.9ZM1.6,83.9c.2,0,.3.1.3.3-1,.3-1.8.8-1.9,1.9-.2,1,.3,1.7.9,2.1.7.5,1.6.7,2.6.8,1.5.2,2.5.3,3.4.4.1,0,.2-.3,0-.4h-.5c-.7-.3-.7-.6-.5-1.8l.9-6c.3-1.6.3-1.8,1.2-1.8h.3c.1,0,.1-.3,0-.4-.6,0-1.1-.1-1.8-.2-.7,0-1.4-.3-1.9-.3-2.9-.4-4.4.6-4.7,2.4-.3,1.7.9,2.6,1.7,2.9ZM4.9,85l-.5,3.2c0,.3-.1.4-.3.4-.2,0-.4,0-.7,0-1.2-.2-2.3-.9-2-2.5.2-1.5,1.2-1.8,2.8-1.6.8,0,.8.1.8.6ZM1.4,80.8c.2-1.6,1.4-2,2.8-1.8.5,0,.9.2,1.2.6.2.4.2,1.2,0,1.8l-.4,2.3c0,.3-.1.4-1,.3-2.5-.4-2.9-1.9-2.7-3.1ZM145.2,192l-.6.7c-.8.9-1.3.7-2.9-.4l-8.5-5.8c-2.4-1.6-2.6-1.8-1.9-3.1l.2-.4c0-.2-.4-.4-.6-.3-.6.8-1,1.6-1.7,2.6-.7.9-1.5,2-1.9,2.6-2.8,4-2.4,7.1.2,8.9,2.4,1.6,4.8.6,5.8-.4.2-.2.4-.3.6-.2-.3,1.8-.1,3.3,1.5,4.4,1.4,1,2.8.9,4,.2,1.2-.6,2.3-1.9,3.2-3.3,1.4-2.1,2.4-3.6,3.2-4.9,0-.2-.3-.5-.5-.4ZM128.3,194.2c-2.2-1.5-2.1-3.7-.7-5.6.5-.7,1.1-1.3,1.9-1.3.8,0,2,.7,2.8,1.2l3.3,2.3c.4.3.5.5-.3,1.7-2.5,3.5-5.2,3-6.9,1.8ZM142.4,195.8c0,.3-.2.6-.6,1.1-1.2,1.7-3.1,2.7-5.3,1.2-2.1-1.4-1.9-3.1-.4-5.4.8-1.2.8-1.2,1.4-.7l4.5,3.1c.4.3.5.4.4.7ZM289.5,168.9c0,2.5,1.5,4.1,3.2,4.9,1.8.9,4.3,1,6.8.9,3.7-.1,6.5-.3,8.6-.6.3-.2.3-.8,0-1h-1.3c-1.8-.2-2-.9-2.1-3.9l-.5-15.1c-.1-4.2,0-4.6,2.1-5h.7c.2-.4.1-1-.1-1.1-1.5,0-2.9.2-4.6.3-.4,0-.7,0-1.1,0,1.2-1.7,2-3.8,2.1-6.6-2.1-3.4-1.7-7.6-5.3-9.8-2.1,0-5.4-.7-6.9-1.5-1.6.8-3.4.2-5.2.8-4.6,1.4-6.8,5.7-8.5,9.8-.3.7-.3,1.7-.3,2.3.2,5,4.8,9.2,10.2,10.5-.2.8-.4,1.6-.3,2.6.1,4.3,3.4,6.2,5.6,6.5.4,0,.8.2.8.6-2.4,1.2-4,2.7-3.9,5.6ZM290.7,155.2c0-.4,0-.7,0-1.1,1.7,0,3.3-.2,4.9-.7,1.4-1,2.8-2,4-3.2.1,0,.2.2.4.3.8.9.9,2.9,1,4.3l.2,5.9c0,.8-.1,1-2.3,1.1-6.4.2-8.1-3.4-8.2-6.6ZM299.2,163c2.1-.1,2.1,0,2.1,1.1l.2,8.1c0,.7-.1.9-.5,1-.4.2-1,.3-1.9.3-3.1,0-6-1.3-6.2-5.2-.1-3.7,2.1-5,6.2-5.3ZM265.1,282.7c-5.5-.5-8.4,3.3-9.1,6-.1.5-.3.9-.8.9-1.2-3.2-2.9-5.4-6.5-5.8-3.3-.3-5.5,1.2-6.7,3.3-1.4,2.2-1.9,5.2-2.2,8.4-.4,4.7-.6,8.1-.5,10.9.2.4.9.5,1.3.2l.3-1.6c.4-2.2,1.4-2.4,5.2-2l19.4,1.7c5.4.5,5.9.6,6.1,3.3v.9c.3.3,1.2.3,1.4,0,.1-1.9.2-3.6.4-5.8.2-2.1.6-4.6.7-6.1.8-9.1-2.8-13.8-8.7-14.3ZM254.7,296.9c-.1,2.6-.2,2.6-1.7,2.5l-10.4-.9c-.9,0-1.1-.3-1.3-.8-.2-.5-.2-1.2-.1-2.3.3-3.8,2.6-7.4,7.6-6.9,4.8.4,6.1,3.3,5.8,8.5ZM272.3,295.9c-.1,1.5-.5,3-1.8,3.9-1.2.9-3.8.7-5.7.6l-7.6-.6c-1,0-1.3-.3-1.1-3,.7-8,5.6-9.6,9.6-9.3,5.1.4,6.9,4.1,6.5,8.5ZM469.1,88.8h-1.1c-.3.3-.4.7-.3,1.4.8-.1,1.6-.3,1.5-1.4ZM476.2,103.2v1.1s1.1,0,1.1,0c.2-.9-.1-1.3-1.1-1.1ZM482.4,149.9c3.2-2.4,2.3-7.1-.4-9.2,0-.1-.2-.2-.4-.2-.8-.5-1.7-.9-2.8-.8-1,0-1.9.4-2.5,1-.2-.1-.4-.2-.8-.2-.5.6-.6,1.4-.5,2.2-1.4,3.9,1.2,10.1,7.3,7.4ZM473.4,108.8c.8-1.3,0-3-1.3-3.3-1.1.9-.6,3.6,1.3,3.3ZM297.1,219.7c-2.1-.3-2.7.9-4.3,1.1-2.2,2.6-3.6,6.6-2.5,11,1.6.7,1.9,2.7,3.1,3.7,2.4-.2,5.4,3,9.8,1.6,3.1-1.1,6.6-4.7,7-7.8.8-5.7-8.8-14-13.1-9.6ZM469.6,142.1c0-1.2.1-2.6-1-2.7-.5.3-.6.8-.6,1.6.6.3.8,1,1.6,1.1ZM602.3,53.9c.8.9,2.1-.3,1.2-1.1h-1.1s0,1.1,0,1.1ZM480,121.8c.1-.7-.4-.9-1.1-.8,0,.7,0,1.2.8,1.1,0-.2,0-.3.3-.3ZM553.6,125c-.3,1,7.4,2.1,7.4,1.3-.5-.3-6.8-1.9-7.4-1.3ZM471.8,170.7c.5-.5,0-.3,0-1.1-1-.2-1.1,1.3,0,1.1ZM445.7,177.9c.5-.4.4-1.7-.5-1.6-.6.2-.4,1.9.5,1.6ZM56.7,57.2c5.2,4.7,2.8-5.5,0,0h0ZM302.2,176c-4.9,4.7-2.9,14.2,3.5,14.8,3.9,0,7.7-.3,10.4-2.9,2.2-3.6.5-8.6-1.2-11.7-3.8-1.6-8.4-2.9-12.6-.2ZM346.1,129.9c-.7,7.7,9.8,6.8,9.2.7-.5-4.5-7.3-4.5-9.2-.7ZM320,309.3c0,.7-.5.8-.3,1.7.8.8,2.3.6,2-1.1-.9.1-1.1-.4-1.7-.6ZM471.4,263.3c0-.5-.3-.6-.3-1.1-.7,0-1.5,0-1.5.8,0,.8,1.4.7,1.7.3ZM459.4,141.1c-.5,0-.6-.3-1.1-.3-.4.3-.4,1.3,0,1.6h.8c.2-.3.4-.7.3-1.3ZM466.9,69.1c-.4,0-.4.3-.8.3v1.1c.3.4,1.5.4,1.9,0,0-.9-.3-1.3-1.1-1.4ZM140.4,2.6c1.1.1,1.6-.5,1.5-1.7-1.4-.4-2.3.7-1.5,1.7ZM76.3,15.3c-4.2-.2-5.3,8.1.7,6.5,4-1,2.7-6.4-.7-6.5ZM63.4,151.4c-4.4.1-6.1,6.3-2.7,8.8,4,1.3,7.4-.6,7.3-4.1,0-2.5-2.3-3.6-4.5-4.6ZM79.1,3.1c-.2,1.7.6,2.4,2.3,2.3.4-.9,1.1-1.4.9-2.8-1-.5-2.7-.4-3.2.5ZM87.8-.4c.8.3.8-.4,1.4-.2M87.3,13.2c0-1-.8-1.3-.8-2.3-1.4-.2-1.6.9-2,1.7.7,1,1.9,2,2.9.6ZM85.3,117.7c-1.1,4.2,5.6,3.8,4,0-.8-.8-3.2-.8-4,0ZM145.3,154.2c0,.3-.5.3-.9.3,0,.7.4,1.1,1.1,1.2-.2-.4.3-1.5-.3-1.4ZM205.2.9c.6,1.5.9,3.4,2.8,3.7,1.3-1.2,2.2-3.5.4-4.8-1.1.3-2.4.4-3.2,1.1ZM195.2,136.8c-.4,3,.7,4.5,2.2,5.7,10.6,1.6,3.4-13.5-2.2-5.7ZM111.8,217.6c-.6,0-1.6,2.2-.3,2.3.6-.5,1.2-.8,1.5-1.7-.6,0-.4-.8-1.1-.6ZM102.8,149.5c6.1-1.6,3.4-11.2-2.7-11.7-2.8.3-4.1,2.2-5.3,4.2-1.4,4.7,3.3,9.3,7.9,7.5ZM105.1,31c-.9.1-1.3-.2-2-.3-.4.6,0,2.2,1.1,2.3.3-.7,1.2-.7.9-2ZM96.7,1.3c0,1.3,1.7,2.5,2.5,2.3,6-.9-2.7-8.3-2.5-2.3ZM139.1,115.5c0,.8,0,1.6-.3,2,5.8,4.4,6-5.4.3-2ZM118.6,74.5c0-1.1,0-2.1-.5-2.6.4,1.3-.6,2.2.5,2.6ZM244.5,200c-.8-.2-1.6.2-2.3,0-1-.3-3.1-2.8-4-3.2-.8-.4-1.5,0-2-.3-.7-.5-.8-1.4-1.4-1.7-2.9-1.5-4.2,3.9-8.1,3.8-.3,1.7.5,2.4.8,3.4-3.4,5.2.5,11.4,5.5,12.3,6,1.1,12.4-3.2,10.8-10.3,1.1-.8.9-2.4.6-4ZM54,99.8c5,1.4,10.4-3,9.4-8.4-.4-2.1-2.6-2.7-3.4-4.3,0,.6-.3.9-.9.8,0-.7,0-1.4-.6-1.4-5.4-1.4-10.2,3.8-8.2,10.1,1.8.6,2.6,2,3.7,3.2ZM205.7,182.3c1.2.3,1.9-.9,1.2-1.7-.9,0-1.3.6-1.2,1.7ZM235.6,186.8c.1,1,1.3,1.8,1.1,3.2,1.8.5,2.6,2,3.7,3.2,6.3,2.4,12.1-.4,14.8-5.4.9-3.5-.9-6.3-1.3-9.4-2.6-1.1-5.1-2.3-7.7-3.3-2.7.4-3.4,1.6-5.8,1.6-1.9,2.7-5.3,5.5-4.8,10.1ZM210.7,197.1c-1.9,2-3.6,4.7-3.3,7.6.6,5.2,7.5,6.3,12,4.8,2.4-2.6,4-7.4,1.6-10.5-2.2-2.9-6.6-2.6-10.3-1.9ZM183.6,128.6c-2.6,1.5-2.2,7.6-.5,9.5,3.8,4.4,9.4-6.2,4.6-9.2-1.1-.2-2.1-.4-4-.4ZM276.3,176.1c-5.7,0-6.5,9.2-.2,9.1,6.4-.2,4.9-9.1.2-9.1ZM271.6,151c0-.9-1.1-.9-1.1-1.7-1.2,1.9-3.2,1.2-4.9,1.6-2.9.8-3.2,3.5-6.1,4.7-1.8-.5-2.5-1.7-4-2.1-9.5-2-13.4,11.1-5.2,15,3.4.2,5.8.1,8.1-1,1.2-1.2,1.8-3.2,3.2-3.4,1.5-.1,1.7,1.3,3.4,2,1.6.7,5.6,1.1,7.7.4,1.4-.4,1.8-1.5,2.6-2.5,4-4.5,3.7-12.5-3.8-13.1ZM145.4,4.9c2.6,6,2.9,6.5-.4,8.6l-1,.6c-.2.5.3,1.3.7,1.4,2.5-1.2,4.5-2.1,6.9-3.2,2.2-1,4.2-1.8,7-2.8.3-.3,0-1.4-.5-1.5l-1.4.4c-2.9.9-3.7.5-5.4-2.9,1.4.4,2.8-.4,2.6-2.3-.5-.5-1.4-.7-2.3-.9-.5.3-.9,1-.9,1.8-.2-.4-.3-.8-.6-1.3M118.5,16.5c.1.3.3.6.4.8,0,.7.2,1.4.8,1.8,1.1,2.6,1.2,3.7.2,4.7h-.2c-.3,0-.4.3-.5.5-.3.2-.6.4-.9.6l-.9.6c-.2.5.3,1.3.7,1.4.9-.4,1.8-.8,2.7-1.3.6.5.5.6-.2,1.6l-6,8.2c-2,2.8-2.3,3.2-3.9,2.3l-1-.5c-.4,0-.8.7-.6,1,1.2.8,2.5,1.6,3.9,2.6,1.4,1,2.5,1.8,4.2,3.2.4,0,.9-.5.8-.9l-1.3-1.1c-1.3-1.1-1.1-1.6,1-4.5l6-8.2c.8-1.1.8-1.1,1.5-.7l4.2,3c.5.2,1.6-.7,1.5-1.4l-4.5-3.2c-.7-.5-.6-.5.1-1.6l.8-1.1c.5-.6,1-1.4,1.6-2.1,1-.4,2.1-.8,3.3-1.3.3-.3,0-1.4-.5-1.5h-.3c.5-.4,1-.8,1.5-1.1,1.6-1,3.1-1,4.4-.2,1.3.9,1.8,2.6,1.9,4,0,.5.2.8.6,1.1.8.5,2,.4,2.5-.3,1-1.4,0-3.6-2.2-5.1-3.9-2.8-8.1-1.6-10.7,0-1,.6-2,1.4-2.9,2.2-1-.7-1.8-2.4-3.3-5.6l-3.5-8c-.8-1.7-.7-1.9,2.1-3.1M120.7,1.1c-2.8,1.2-2.9,1.2-3.7-.6M274.1,201.9c-.7-.3-.9-1-2-.9-.4.5-.8.9-.6,2,.5.5,1.2.7,2.3.6-.2-.9.5-.8.3-1.7ZM192,.1c0,.7.4,1.1,1.1,1.2M39,67.1v-2c-.6-.2-2-.6-2.6,0-.5,2.1,1,2.6,2.6,2ZM251.4,137.9c-2.6,3.3-.5,7.9,1,11.1,3.9,1.3,6.3,2.9,10,1.9,2.8-.8,4.9-4.4,6.1-3.3-.7-2.6,1.4-3.7,1.3-6.5-1-1.4-1.6-3.3-2.2-5.2-1.1-2.5-7.9-1.4-9.1-4.4-.2-.5.4-1.8.3-2.3-.6-7.3-12.5-7.5-12.7,1.2.6.9.8,2.3,0,3.1,2.2,1.1,5,1.5,5.4,4.4ZM174.2,178.3c-5-1.8-8.3,1-10.7,3.5,0,.8.6.9.5,1.7h-1.2c-1.4,6,5.4,11.1,10.2,7.8,3.5.6,4.5-3.6,5.6-6.4-.4-3.2-3.3-4.1-4.5-6.6ZM173.1,173.8c.6-2-.9-2.1-1.1-3.4-1.4.2-1.9,1.1-2.3,2.2.6,1.1,1.8,1.8,3.4,1.2ZM172.9,127.6c-1,3.2,3.9,2.9,3.2,0-.7-.6-2.5-.9-3.2,0ZM241.3,138.6c-1.5-.8-2.6-.5-3.2.8.3,2.1,3.7,2.3,3.2-.8ZM223.9,106.4c-4.7,4.8.5,12.8,7,10.1,4.4-2.7,3.6-10.1-1.5-11.4-.9.4-4,.6-5.5,1.3ZM232.3,44c-.8.5-1.4,1.3-1.9,2.1,1.3,4.1,5.7-.7,1.9-2.1ZM216.3,90.1c.1-.7-.4-.9-1.1-.8-.2.9.7,1.2,1.1.8ZM230.6,103.4c1.3,3.2-.7,1-2.8-2.3-.9.4,4.7,1,3.7.9.3,1.1-1.1.4-.9,1.4ZM219.7,86.9c0,.4-.4.5-.3,1.1h1.1c0-.7-.4-.8-.8-1.1ZM270.6,44.2c5.5,2.9,1-6,0,0h0ZM264.7,35.5c.9.2,1.1-.4,1.7-.5-.2-.9-.4-1.6-1.4-1.7-.7.5-.7,1.4-.3,2.3ZM282.1,45.2c-1.6,0-1.2.2-2.6.2-1.9,4.5,5.7,3.1,2.6-.2ZM261.8,37.5v2c.5,0,.6.3,1.1.3,0-.9.9-1.9.3-2.5-.8-.2-.8.4-1.4.3ZM285,41.3c-.9.3-1.3,2.3-.3,2.8.5-.4,1.6-.2,1.5-1.4-.6-.3-.8-.9-1.1-1.4ZM535,91.6v1.1c.5,0,.8,0,1.1-.3,0-.7-.4-.9-1.1-.8ZM257.7,58.1c-.1,1,0,1.6.2,2.3,1.5.1,2.2-1.4,1.2-2.2-.3.8-.7-.4-1.4,0ZM375,13.7c.1-.7-.5-.6-.2-1.4-1.7.1-2.5,2.7-2.3,4,1.4-.3,1.2-2.2,2.5-2.6ZM424.3,75.9c-.7-.4-.8-.6-1.6-.3v1.6c1.2.2,1.4-.6,1.6-1.3ZM359.3,16.2c0-.4-.1-.6-.3-.9-.7.2-1.3.3-1.5,1.1.7,0,1.4,0,1.7-.2ZM362.5,13.4c-.8,0-1.6-.1-2,.3-.5,2,2.7,1.9,2-.3ZM332.3,31.3c4.1.6,4.2-2.8,8.1-2.4,1.3-1,1.6-3.8.4-5.1-1.3-.2-1.8.1-2.3-1.2-3.2,0-4.3,3.9-7,5.3,0,1.3.5,2.3.8,3.4ZM475.2,35.2c-.1-.7.5-.6.3-1.4-1.3-.3-1.4,1.4-.3,1.4ZM472.7,35.3c0-.5.3-.6.3-1.1-.6-.3-1.1-.7-2.2-.6-.2,1.3,1,1.3,1.9,1.7ZM421.7,37.9c-.1,1.2.4,1.7,1.3,1.9,1.2-1,0-3.2-1.3-1.9ZM518.2,105.3c-.3,2,.8,2.7,1.8,3.5.3-1.3.5-3.6-1.8-3.5ZM492,90.8c-1,2.5.8,4.5,2.6,5.2,0-2.6.2-5.3-2.6-5.2ZM462.3,102.1c.1-2.2.3-4.3-1.6-4.6-1.4,1.5,0,4.1,1.6,4.6ZM335.8,15.7c-1.2.2-1.9,0-2.6.2.2,1.1-.4,1.4-.3,2.3,1.9,1.7,4.6-.3,2.9-2.5ZM495.7,97.4c-.7,0-.6-.5-1.4-.3-.6,1.4.3,2.9,1.6,3.3-.3-1.3,0-1.8-.2-3ZM448.8,74.5c0-.5.3-.6.3-1.1h-1.1c.1.5,0,1.1.8,1.1ZM462.9,36.2c0-.6,0-1-.3-1.4-.7,0-1.1.4-1.1,1.1.3.2.7.4,1.4.3ZM556.1,14.7c0,1.3.8,1.6,2,1.7,1-1.1-.8-2.7-2-1.7ZM558.2,5c1.1.1,1.8-1,1.1-1.9-1.2,0-1.7.8-1.1,1.9Z"/>
</svg>