<?xml version="1.0" encoding="UTF-8"?>
<svg id="Layer_1" xmlns="http://www.w3.org/2000/svg" version="1.1" viewBox="0 0 39.4 42.5">
  <!-- Generator: Adobe Illustrator 29.6.1, SVG Export Plug-In . SVG Version: 2.1.1 Build 9)  -->
  <path d="M22.3,15.5c-.2.8-.4.9-1.3.9h-2.6c-1,0-1.1-.3-1.2-.9L14.1,1c-.2-.9.3-1,1.2-1h9.1c1.3,0,1.2.7,1.1,1.1l-3.2,14.4Z"/>
  <path d="M27.9,40c-1.1,1.2-2.8,2.4-4.6,2.4s-2.1-.4-3.2-1c-1.4-.7-2.1-1-2.9-1-1.2,0-1.7.5-3,2.1l-1.6-3c.6-.9,2-2.8,4.5-2.8s1.5.2,4.1,1.4c.7.3,1.5.7,2.2.7,1.2,0,2.2-1,2.9-1.8l1.5,3.1Z"/>
  <path d="M25.1,27.1c.6-.9,1-1.9,1-3.1,0-1-.3-2-.8-2.8,3,.5,5.9,1.5,8.6,2.9l1.4-2.8c-4.9-2.6-10.3-3.7-15.7-3.7s-10.8,1.1-15.7,3.7l1.4,2.8c2.8-1.4,5.7-2.4,8.8-2.9-.5.8-.8,1.8-.8,2.8,0,1.2.4,2.2,1,3.1-3.2-.5-6.2-1.5-9.1-3l-1.4,2.8c4.9,2.6,10.3,3.7,15.7,3.7s10.8-1.1,15.7-3.7l-1.4-2.8c-2.7,1.4-5.7,2.4-8.7,2.9ZM19.8,26.5c-.9,0-1.7-.3-2.3-.8-.5-.5-.8-1-.8-1.7,0-.6.3-1.2.8-1.7.5-.5,1.4-.8,2.3-.8.9,0,1.7.3,2.3.8.5.5.8,1,.8,1.7,0,.6-.3,1.2-.8,1.7-.5.5-1.4.8-2.3.8Z"/>
  <path d="M37.3,26.4c-1.1,0-2.1-.9-2.1-2.1s.9-2.1,2.1-2.1,2.1.9,2.1,2.1-.9,2.1-2.1,2.1"/>
  <path d="M2.1,26.2c-1.1,0-2.1-.9-2.1-2.1s.9-2.1,2.1-2.1,2.1.9,2.1,2.1-.9,2.1-2.1,2.1"/>
  <path d="M19.9,35.9c-1.1,0-2.1-.9-2.1-2.1s.9-2.1,2.1-2.1,2.1.9,2.1,2.1-.9,2.1-2.1,2.1"/>
</svg>